<svg width="34" height="35" viewBox="0 0 34 35" fill="none" xmlns="http://www.w3.org/2000/svg">
<path d="M17 0.712402C7.61116 0.712402 0 8.32356 0 17.7124C0 27.1012 7.61116 34.7124 17 34.7124C26.3888 34.7124 34 27.1012 34 17.7124C33.9891 8.32809 26.3843 0.723332 17 0.712402Z" fill="#5243C2"/>
<path d="M26.8131 12.329L17.116 25.4884C16.8847 25.7952 16.5399 25.9963 16.1589 26.0463C15.778 26.0964 15.3929 25.9913 15.0902 25.7547L8.16551 20.2184C7.55445 19.7294 7.4555 18.8376 7.94451 18.2265C8.43351 17.6155 9.32528 17.5165 9.93634 18.0055L15.7107 22.6253L24.5323 10.653C24.8215 10.219 25.3259 9.97897 25.8452 10.0284C26.3645 10.0777 26.8147 10.4085 27.017 10.8893C27.2192 11.3701 27.1409 11.9232 26.8131 12.329Z" fill="white"/>
</svg>
