<svg width="65" height="54" viewBox="0 0 65 54" fill="none" xmlns="http://www.w3.org/2000/svg">
<path d="M31.9275 10.1956C37.5583 4.56474 46.6877 4.56474 52.3186 10.1956C57.9494 15.8264 57.9494 24.9558 52.3186 30.5867C46.6877 36.2175 37.5583 36.2175 31.9275 30.5867C26.2967 24.9558 26.2967 15.8264 31.9275 10.1956ZM49.0184 27.2865C52.8267 23.4783 52.8266 17.304 49.0184 13.4957C45.2102 9.68753 39.0359 9.68753 35.2277 13.4957C31.4194 17.304 31.4194 23.4783 35.2277 27.2865C39.0359 31.0947 45.2102 31.0947 49.0184 27.2865Z" fill="white"/>
<path d="M26.958 31.7602C24.803 33.4026 22.2289 34.4045 19.5306 34.6511C16.8324 34.8978 14.1193 34.3792 11.7023 33.1548C9.28527 31.9304 7.26215 30.0497 5.86481 27.7284C4.46748 25.407 3.75249 22.7389 3.8018 20.0299C3.8511 17.3209 4.66271 14.6806 6.14359 12.4116C7.62448 10.1427 9.7147 8.3369 12.1747 7.20126C14.6347 6.06563 17.3649 5.6461 20.0523 5.99077C22.7397 6.33545 25.2757 7.43037 27.3695 9.15003L24.4073 12.7566C22.9912 11.5936 21.2761 10.8531 19.4586 10.62C17.641 10.3869 15.7946 10.6706 14.1309 11.4387C12.4671 12.2067 11.0535 13.428 10.0519 14.9625C9.0504 16.497 8.5015 18.2827 8.46816 20.1149C8.43481 21.947 8.91837 23.7515 9.8634 25.3214C10.8084 26.8914 12.1767 28.1633 13.8114 28.9914C15.446 29.8195 17.281 30.1702 19.1058 30.0034C20.9306 29.8366 22.6715 29.159 24.129 28.0482L26.958 31.7602Z" fill="white"/>
<circle cx="18.0176" cy="20.1504" r="5.5" fill="white"/>
<circle cx="42.5" cy="20.5" r="5.5" fill="white"/>
<path d="M57.6621 48.782V40.0547H62.8951V40.9922H58.7189V43.9411H62.503V44.8786H58.7189V48.782H57.6621Z" fill="white"/>
<path d="M48.0898 48.782V40.0547H53.3569V40.9922H49.1467V43.9411H53.0842V44.8786H49.1467V47.8445H53.4251V48.782H48.0898Z" fill="white"/>
<path d="M38.5186 48.782V40.0547H43.7856V40.9922H39.5754V43.9411H43.5129V44.8786H39.5754V47.8445H43.8538V48.782H38.5186Z" fill="white"/>
<path d="M26.3131 48.782L23.9268 40.0547H25.0006L26.8245 47.1626H26.9097L28.7677 40.0547H29.9608L31.8188 47.1626H31.904L33.7279 40.0547H34.8018L32.4154 48.782H31.3245L29.3983 41.8274H29.3302L27.404 48.782H26.3131Z" fill="white"/>
<path d="M20.5512 44.4185C20.5512 45.339 20.385 46.1344 20.0526 46.8049C19.7203 47.4753 19.2643 47.9924 18.6847 48.356C18.1052 48.7196 17.4433 48.9015 16.699 48.9015C15.9546 48.9015 15.2927 48.7196 14.7132 48.356C14.1336 47.9924 13.6776 47.4753 13.3453 46.8049C13.0129 46.1344 12.8467 45.339 12.8467 44.4185C12.8467 43.498 13.0129 42.7026 13.3453 42.0321C13.6776 41.3617 14.1336 40.8446 14.7132 40.481C15.2927 40.1174 15.9546 39.9355 16.699 39.9355C17.4433 39.9355 18.1052 40.1174 18.6847 40.481C19.2643 40.8446 19.7203 41.3617 20.0526 42.0321C20.385 42.7026 20.5512 43.498 20.5512 44.4185ZM19.5285 44.4185C19.5285 43.6628 19.4021 43.025 19.1492 42.5051C18.8992 41.9853 18.5597 41.5918 18.1308 41.3248C17.7046 41.0577 17.2274 40.9242 16.699 40.9242C16.1705 40.9242 15.6918 41.0577 15.2629 41.3248C14.8367 41.5918 14.4972 41.9853 14.2444 42.5051C13.9944 43.025 13.8694 43.6628 13.8694 44.4185C13.8694 45.1742 13.9944 45.812 14.2444 46.3319C14.4972 46.8517 14.8367 47.2452 15.2629 47.5123C15.6918 47.7793 16.1705 47.9128 16.699 47.9128C17.2274 47.9128 17.7046 47.7793 18.1308 47.5123C18.5597 47.2452 18.8992 46.8517 19.1492 46.3319C19.4021 45.812 19.5285 45.1742 19.5285 44.4185Z" fill="white"/>
<path d="M9.07946 42.7821H8.02264C7.96014 42.4782 7.85076 42.2111 7.69451 41.981C7.5411 41.7509 7.3536 41.5577 7.13201 41.4015C6.91326 41.2424 6.67037 41.123 6.40332 41.0435C6.13628 40.964 5.85787 40.9242 5.56809 40.9242C5.03968 40.9242 4.56099 41.0577 4.13201 41.3248C3.70588 41.5918 3.36639 41.9853 3.11355 42.5051C2.86355 43.025 2.73855 43.6628 2.73855 44.4185C2.73855 45.1742 2.86355 45.812 3.11355 46.3319C3.36639 46.8517 3.70588 47.2452 4.13201 47.5123C4.56099 47.7793 5.03968 47.9128 5.56809 47.9128C5.85787 47.9128 6.13628 47.873 6.40332 47.7935C6.67037 47.714 6.91326 47.5961 7.13201 47.4398C7.3536 47.2807 7.5411 47.0861 7.69451 46.856C7.85076 46.623 7.96014 46.356 8.02264 46.0549H9.07946C8.99991 46.5009 8.85503 46.9 8.6448 47.2523C8.43457 47.6046 8.17321 47.9043 7.86071 48.1515C7.54821 48.3958 7.19736 48.5819 6.80815 48.7097C6.42179 48.8375 6.00843 48.9015 5.56809 48.9015C4.82378 48.9015 4.16184 48.7196 3.5823 48.356C3.00275 47.9924 2.54679 47.4753 2.2144 46.8049C1.88201 46.1344 1.71582 45.339 1.71582 44.4185C1.71582 43.498 1.88201 42.7026 2.2144 42.0321C2.54679 41.3617 3.00275 40.8446 3.5823 40.481C4.16184 40.1174 4.82378 39.9355 5.56809 39.9355C6.00843 39.9355 6.42179 39.9995 6.80815 40.1273C7.19736 40.2551 7.54821 40.4426 7.86071 40.6898C8.17321 40.9341 8.43457 41.2324 8.6448 41.5847C8.85503 41.9341 8.99991 42.3333 9.07946 42.7821Z" fill="white"/>
</svg>
